<?xml version="1.0" encoding="utf-8"?>
<!-- Generator: Adobe Illustrator 22.1.0, SVG Export Plug-In . SVG Version: 6.00 Build 0)  -->
<svg version="1.1" id="Layer_1" xmlns="http://www.w3.org/2000/svg" xmlns:xlink="http://www.w3.org/1999/xlink" x="0px" y="0px"
	 viewBox="0 0 3333 1875" style="enable-background:new 0 0 3333 1875;" xml:space="preserve">
<style type="text/css">
	.st0{display:none;}
	.st1{fill:#090B11;}
	.st2{fill:#121625;}
	.st3{fill:#151212;}
	.st4{fill:#525263;}
	.st5{fill:#0F1522;}
	.st6{fill:#45485F;}
	.st7{fill:#87D3FF;}
	.st8{fill:#59A7E2;}
	.st9{fill:#1A1A1C;}
	.st10{fill:#141623;}
	.st11{fill:#4E526A;}
	.st12{fill:#5E6990;}
	.st13{fill:#1A1B22;}
	.st14{fill:#131219;}
	.st15{fill:#3F3E4C;}
	.st16{fill:#313339;}
	.st17{fill:#393947;}
	.st18{fill:#373B50;}
	.st19{fill:#3E4255;}
	.st20{fill:none;stroke:#000000;stroke-width:4;stroke-miterlimit:10;}
	.st21{fill:#25252D;}
	.st22{fill:#414559;}
	.st23{fill:#222537;}
	.st24{fill:#1C1D28;}
	.st25{fill:#302F35;}
	.st26{fill:#13171C;}
	.st27{fill:#303A4B;}
</style>
<image style="display:none;overflow:visible;enable-background:new    ;" width="4032" height="3024" xlink:href="C:\Users\jon.byles\Desktop\20190318_145040.jpg"  transform="matrix(-0.3738 -9.445203e-03 9.445203e-03 -0.3738 2046.7734 1472.2477)">
</image>
<image style="display:none;overflow:visible;enable-background:new    ;" width="4032" height="3024" xlink:href="C:\Users\jon.byles\Desktop\20190318_145040.jpg"  transform="matrix(-0.3738 -9.445203e-03 9.445203e-03 -0.3738 3425.0662 2459.2163)">
</image>
<image style="display:none;overflow:visible;" width="1021" height="580" xlink:href="../pimax-ces-2019-5-1021x580.jpg"  transform="matrix(2.2241 0 0 2.2241 360.3586 314)">
</image>
<polygon class="st0" points="1130.6,773.6 1985.6,968.6 1978.1,1145.6 1879.1,1465.1 1090.1,1300.1 1081.1,1001.6 "/>
<g>
	<path class="st1" d="M825,761.6c44.7-43.8,145.2-32.1,220.7-48.9c48.5-10.8,157.7-71.6,233.7-49.1c59.1,17.5,187-37,253,59
		c66,96,358.5,51,358.5,51s75-144-40.5-127.5c-115.5,16.5-282-4.5-295.5-48c-13.5-43.5-114.6-22.3-210.5-41.5
		c-75-15-138-14.7-167.5-62c-26.9-43.1-66.5-50-92-75.5c-26.5-26.5-22.5-75,76.5-127.5c99-52.5-237,132-237,132l-143,319.5
		C781.5,743.1,743.2,841.8,825,761.6z M992.3,539.4c65.6-14.3,119.5-22.3,129.5,23.3c9.5,43.8-44.1,42.8-109.7,57.1
		c-65.6,14.3-118.4,44-127.8-5.4C876.7,574.9,926.7,553.6,992.3,539.4z"/>
	<path class="st1" d="M846,1095.6c0,0-44.9-111.6-69.5-150c-29.4-45.9-92.7-124.2-29-213.5c95.7-134.2,31.1-122.2,67.5-190
		c18.2-34,60.5-75.3,77-111c90-195,224.5-139.5,320.5-145.5c96-6-37.1-0.5-31.5,1.5c21,7.5-120,16.5-159,142.5
		c-10.5,33.8-152.3,110.8-156,153c-0.8,9.2-9.7,68.4,15,79.5c43.5,19.5,131.2-8.6,121.8,3.8c-44.3,58.6-142.7,51.4-180.7,97.4
		C764.6,833,757.6,910,921,1076.1"/>
	<path class="st2" d="M1479.3,484.7c-17.3-60.7,52.3,20.3,52.3,20.3l121,105.7c0,0-118.7,106-140.7,80S1507.9,584.7,1479.3,484.7z"
		/>
	<path class="st3" d="M855.9,975.3c0,0-19.3-30.7-59.3-32.7l29.3,150l20.7-0.7L855.9,975.3z"/>
	<path class="st4" d="M1082.5,841.1c-67.1,54.9,298.5-42,298.5-42l106.5-97.5C1487.5,701.6,1198,746.6,1082.5,841.1z"/>
	<path class="st5" d="M1423,725.6c0,0-222,45-322.5,114s351-76.5,351-76.5l13.5-37.5C1465,725.6,1456,722.6,1423,725.6z"/>
	<path class="st6" d="M1397.9,774.1c0,0,76,32.5,220,44.5s-762,195-762,195l-7.5-58.5l70.5-81L1397.9,774.1z"/>
	<polygon class="st7" points="2176,712.1 1846,988.1 1841.5,1088.6 2197,742.1 	"/>
	<polygon class="st8" points="1864,1053.6 1864,1007.6 1066,1115.6 1054,1163.6 	"/>
	<polygon class="st9" points="1079.5,1126.1 968.5,1138.1 1061.5,1468.1 1853.5,1300.1 1864,1040.6 	"/>
	<polygon class="st10" points="1864,1007.6 1811.5,767.6 958,967.1 968.5,1138.1 1073.7,1127.5 1075.5,1122.1 	"/>
	<path class="st11" d="M1772.5,653.6c0,0-68.4-28.1-156.4-19.1l129.4,68.6l180,9C1925.5,712.1,1871.5,665.6,1772.5,653.6z"/>
	<polygon class="st12" points="1745.5,703.1 1811.5,767.6 1600,820.1 	"/>
	<path class="st6" d="M1930,584.6l183-10.5l52.5,7.5l1.5,9l-250.5,136.5l9-15c0,0-60-37.5-147-57L1930,584.6z"/>
	<polygon class="st13" points="881.5,974.6 859,1132.1 968.5,1138.1 958,967.1 	"/>
	<polygon class="st14" points="972.8,1465.6 1062.3,1468.6 969.3,1137.6 858.8,1131.6 	"/>
	<polygon class="st15" points="938.5,1430.6 973,1465.1 859,1132.1 827.5,1106.6 	"/>
	<polygon class="st16" points="2167,590.6 1811.5,767.6 1864,1007.6 2176,730.6 2182,733.1 2209,710.6 	"/>
	<polygon class="st17" points="2173,991.1 2209,710.6 2182,733.1 1864,1040.6 1853.5,1300.1 	"/>
	<polygon class="st18" points="1925.5,712.1 1745.5,703.1 1811.5,767.6 	"/>
	<path class="st19" d="M1616.1,634.5l129.4,68.6c0,0-142.5,114-145.5,117c-3,3-219-42-219-42S1471.1,664.5,1616.1,634.5z"/>
	<path class="st20" d="M852,956.6l633-155c0,0,241-161.5,380.5-119L2113,576.1"/>
	<polygon class="st21" points="1039,1508.6 973,1465.1 1061.5,1468.1 1853.5,1300.1 1849,1313.6 	"/>
	<polygon class="st22" points="2165.5,1013.6 2173,991.1 1853.5,1300.1 1849,1313.6 	"/>
	<path class="st23" d="M1522.9,444.5c86.4,111.2,186.4,196.1,186.4,196.1l0.1-2l0.9,5l-73.6,0.9l-74.1,38.9l-20.5,0.9
		c22.3-46.9-81.7-134.9-146.1-210s-196-224.3-447.4-130.3c0,0,64.1-63.1,174.1-85.1S1424.6,318,1522.9,444.5z"/>
	<path class="st3" d="M801.3,1084.7"/>
	<path class="st24" d="M804.6,1089.3c0,0-13.3-0.7-16.7-20c-3.3-19.3-28-124-29.3-130.7c-1.3-6.7,1.3-8,12-4c10.7,4,26,8,26,8
		l29.3,150L804.6,1089.3z"/>
	<polygon class="st25" points="851.5,955.1 827.5,1106.6 859,1132.1 881.5,974.6 	"/>
	<polygon points="2113.7,578.1 2120.6,575.2 2113,574.1 2111.1,574.9 	"/>
	<g>
		<path class="st26" d="M968.5,943.5c1.6,4.2,8.4,4.6,16.3,2.3c8-2.3,13.4-6.8,12.3-10.4c-0.3-0.9-0.4-2.2-1.3-2.8
			c-2.8-1.8-8.8-1.6-14.8,0.1C973,935,967.2,939.9,968.5,943.5z"/>
		
			<ellipse transform="matrix(0.9596 -0.2815 0.2815 0.9596 -224.2709 314.3657)" class="st27" cx="982.1" cy="937.8" rx="15" ry="6.8"/>
	</g>
	<g>
		<polygon class="st26" points="1005.2,893.2 987.8,910.9 987.5,908.2 1001.8,892.2 1005.1,890.9 		"/>
		<polygon class="st27" points="984.3,894.7 1005.3,890.9 987.6,909.1 		"/>
	</g>
	<g>
		<polygon class="st26" points="1008.7,885 988.5,888.3 988.5,886.7 1007,868.5 1008.3,872.3 		"/>
		<polygon class="st27" points="1007.7,883.6 1007.1,868.4 988.5,886.7 		"/>
	</g>
</g>
</svg>
